# xmcd
# Track frame offsets:
# 150
# 12242
# 25155
# 45630
# 66222
# 86162
# 104895
# 121705
# 141542
# 160452
# 178660
# 197177
# 215470
# 228587
# 241717
# 255982
# 269670
# 283805
# 300097
#
# Disc length: 4190 seconds
# Revision: 2
# Processed by: cddbd v1.4PL0 Copyright (c) Steve Scherf et al.
# Submitted via: VisiTrax 2.9.5.180 - For more info visit www.synapsa.com
#
DISCID=15105c13
DTITLE=Various Artist - The Port of Harlem Jazzmen
DYEAR=1900
DGENRE=
TTITLE0=The Port of Harlem Jazzmen - Daybreak Blues
TTITLE1=The Port of Harlem Jazzmen - Wearyland Blues
TTITLE2=The Port of Harlem Jazzmen - Port of Harlem Blues
TTITLE3=The Port of Harlem Jazzmen - Mighty Blues
TTITLE4=The Port of Harlem Jazzmen - Rockin' The Blues
TTITLE5=The Port Of Harlem Seven - After Hours Blues
TTITLE6=The Port Of Harlem Seven - Basin Street Blues
TTITLE7=The Port Of Harlem Seven - Blues For Tommy
TTITLE8=The Port Of Harlem Seven - Summertime
TTITLE9=The Port Of Harlem Seven - Pounding Heart Blues
TTITLE10=Sidney Bechet Blue Note Quartet - Lonesome Blues
TTITLE11=Sidney Bechet Blue Note Quartet - Dear Old Southland
TTITLE12=Sidney Bechet Blue Note Quartet - Bechet's Steady Rider
TTITLE13=Sidney Bechet Blue Note Quartet - Saturday Night Blues
TTITLE14=Teddy Bunn, gtr, v - King Porter Stomp
TTITLE15=Teddy Bunn, gtr, v - Bachelor Blues
TTITLE16=Teddy Bunn, gtr, v - Blues Without Words (alternate take)
TTITLE17=Teddy Bunn, gtr, v - Blues Without Words
TTITLE18=Teddy Bunn, gtr, v - Guitar in High
EXTD=
EXTT0=
EXTT1=
EXTT2=
EXTT3=
EXTT4=
EXTT5=
EXTT6=
EXTT7=
EXTT8=
EXTT9=
EXTT10=
EXTT11=
EXTT12=
EXTT13=
EXTT14=
EXTT15=
EXTT16=
EXTT17=
EXTT18=
PLAYORDER=
